<svg width="16" height="17" viewBox="0 0 16 17" fill="none" xmlns="http://www.w3.org/2000/svg">
<path d="M14.2667 6.28912H13.2V4.02245C13.2 2.03765 11.0507 0.289116 8.00001 0.289116C4.94934 0.289116 2.80001 2.03765 2.80001 4.02245V6.28912H1.73334C1.07174 6.28912 0.53334 6.82752 0.53334 7.48912V15.0891C0.53334 15.7507 1.07174 16.2891 1.73334 16.2891H14.2667C14.9283 16.2891 15.4667 15.7507 15.4667 15.0891V7.48912C15.4667 6.82752 14.9283 6.28912 14.2667 6.28912ZM3.60001 4.02245C3.60001 2.47845 5.39201 1.08912 8.00001 1.08912C10.608 1.08912 12.4 2.47845 12.4 4.02245V6.28912H3.60001V4.02245ZM14.6667 15.0891C14.6667 15.3099 14.4875 15.4891 14.2667 15.4891H1.73334C1.51254 15.4891 1.33334 15.3099 1.33334 15.0891V7.48912C1.33334 7.26832 1.51254 7.08912 1.73334 7.08912H14.2667C14.4875 7.08912 14.6667 7.26832 14.6667 7.48912V15.0891Z" fill="#6F74DD"/>
</svg>
