<svg width="16" height="17" viewBox="0 0 16 17" fill="none" xmlns="http://www.w3.org/2000/svg">
<path d="M8 8.82245C5.64713 8.82245 3.73334 6.90866 3.73334 4.55578C3.73334 2.20291 5.64713 0.289116 8 0.289116C10.3529 0.289116 12.2667 2.20291 12.2667 4.55578C12.2667 6.90866 10.3529 8.82245 8 8.82245ZM8 1.06487C6.07535 1.06487 4.50909 2.63113 4.50909 4.55578C4.50909 6.48044 6.07535 8.04669 8 8.04669C9.92466 8.04669 11.4909 6.48044 11.4909 4.55578C11.4909 2.63113 9.92466 1.06487 8 1.06487Z" fill="#6F74DD"/>
<path d="M14.7368 16.2891H1.26316C0.566737 16.2891 0 15.7956 0 15.1891C0 15.1392 0.0117895 13.4201 1.03158 12.2358C1.62526 11.5464 2.43789 10.9986 3.44758 10.6085C4.68042 10.1311 6.21221 9.88912 8 9.88912C9.78779 9.88912 11.3196 10.1311 12.5524 10.6085C13.5621 10.9994 14.3747 11.5464 14.9684 12.2358C15.9882 13.4201 16 15.1392 16 15.1891C16 15.7956 15.4333 16.2891 14.7368 16.2891ZM8 10.6224C5.06358 10.6224 2.89684 11.3213 1.73389 12.6435C0.862316 13.6342 0.842947 15.1803 0.842105 15.1906C0.842105 15.3915 1.03074 15.5558 1.26316 15.5558H14.7368C14.9693 15.5558 15.1579 15.3915 15.1579 15.1891C15.1579 15.1803 15.1385 13.6342 14.2661 12.6435C13.1023 11.3213 10.9356 10.6224 8 10.6224Z" fill="#6F74DD"/>
</svg>
