<svg width="211" height="45" viewBox="0 0 211 45" fill="none" xmlns="http://www.w3.org/2000/svg">
<path d="M45.0741 22.1443L56.3423 33.2167L45.0741 44.2891L33.8059 33.2167L45.0741 22.1443Z" fill="#3998FF"/>
<path d="M22.5262 22.1346L33.7894 33.2021L22.5262 44.2696L11.2631 33.2021L22.5262 22.1346Z" fill="#D763FF"/>
<rect width="15.8119" height="15.8119" transform="matrix(0.713277 0.700883 -0.713277 0.700883 33.8146 11.0827)" fill="#8A88FF"/>
<rect width="15.8119" height="15.8119" transform="matrix(0.713277 0.700883 -0.713277 0.700883 11.2783 11.0827)" fill="#FFB800"/>
<path d="M45.0823 0L56.3605 11.0823L45.0823 22.1646L33.804 11.0823L45.0823 0Z" fill="#8A88FF"/>
<path d="M22.5468 0L33.8251 11.0823L22.5468 22.1646L11.2686 11.0823L22.5468 0Z" fill="#FF7979"/>
<rect width="15.8119" height="15.8119" transform="matrix(0.713277 0.700883 -0.713277 0.700883 56.3508 11.0729)" fill="#19E6F3"/>
<path d="M33.8146 11.0729L45.0928 22.1552L33.8146 33.2374L22.5363 22.1552L33.8146 11.0729Z" fill="#3A36FF"/>
<path d="M81.1629 29.1637C82.4349 29.1637 83.4309 28.8787 84.1509 28.3087C84.8709 27.7387 85.2309 26.9557 85.2309 25.9597C85.2309 25.2037 84.9969 24.6067 84.5289 24.1687C84.0669 23.7307 83.2809 23.3677 82.1709 23.0797C81.4149 22.8877 80.8509 22.7317 80.4789 22.6117C80.1129 22.4917 79.8699 22.3747 79.7499 22.2607C79.6359 22.1467 79.5789 22.0057 79.5789 21.8377C79.5789 21.5557 79.7139 21.3397 79.9839 21.1897C80.2599 21.0397 80.6229 20.9797 81.0729 21.0097C82.0269 21.0817 82.5489 21.4897 82.6389 22.2337L85.1409 21.7837C85.0149 20.9017 84.5829 20.2027 83.8449 19.6867C83.1069 19.1647 82.1649 18.9037 81.0189 18.9037C79.8429 18.9037 78.9039 19.1797 78.2019 19.7317C77.4999 20.2837 77.1489 21.0277 77.1489 21.9637C77.1489 22.7077 77.3919 23.2957 77.8779 23.7277C78.3639 24.1537 79.2009 24.5197 80.3889 24.8257C81.0909 25.0117 81.6069 25.1617 81.9369 25.2757C82.2729 25.3897 82.4889 25.5067 82.5849 25.6267C82.6809 25.7407 82.7289 25.8937 82.7289 26.0857C82.7289 26.3917 82.6089 26.6317 82.3689 26.8057C82.1289 26.9737 81.7869 27.0577 81.3429 27.0577C80.8029 27.0577 80.3559 26.9287 80.0019 26.6707C79.6539 26.4127 79.4289 26.0557 79.3269 25.5997L76.8249 25.9777C76.9869 26.9917 77.4429 27.7777 78.1929 28.3357C78.9489 28.8877 79.9389 29.1637 81.1629 29.1637ZM87.1907 28.8937H89.6567V23.0077C89.6567 22.4497 89.8097 21.9967 90.1157 21.6487C90.4277 21.2947 90.8387 21.1177 91.3487 21.1177C91.8827 21.1177 92.2997 21.2977 92.5997 21.6577C92.9057 22.0117 93.0587 22.5097 93.0587 23.1517V28.8937H95.5067V23.0077C95.5067 22.4497 95.6597 21.9967 95.9657 21.6487C96.2777 21.2947 96.6887 21.1177 97.1987 21.1177C97.7327 21.1177 98.1497 21.2977 98.4497 21.6577C98.7557 22.0117 98.9087 22.5097 98.9087 23.1517V28.8937H101.357V22.5037C101.357 21.4417 101.072 20.5837 100.502 19.9297C99.9377 19.2697 99.1007 18.9397 97.9907 18.9397C97.3667 18.9397 96.7937 19.0747 96.2717 19.3447C95.7497 19.6147 95.3327 19.9837 95.0207 20.4517C94.7687 19.9957 94.4087 19.6297 93.9407 19.3537C93.4727 19.0777 92.8907 18.9397 92.1947 18.9397C91.6067 18.9397 91.0667 19.0567 90.5747 19.2907C90.0827 19.5187 89.6747 19.8337 89.3507 20.2357V19.1737H87.1907V28.8937ZM106.397 29.1637C107.147 29.1637 107.777 29.0497 108.287 28.8217C108.803 28.5877 109.277 28.2157 109.709 27.7057V28.8937H111.851V22.9537C111.851 22.5097 111.833 22.1077 111.797 21.7477C111.761 21.3877 111.647 21.0277 111.455 20.6677C111.113 20.0197 110.609 19.5637 109.943 19.2997C109.277 19.0357 108.515 18.9037 107.657 18.9037C106.487 18.9037 105.563 19.1557 104.885 19.6597C104.207 20.1637 103.745 20.8177 103.499 21.6217L105.713 22.3237C105.869 21.8797 106.142 21.5707 106.532 21.3967C106.922 21.2227 107.297 21.1357 107.657 21.1357C108.233 21.1357 108.662 21.2437 108.944 21.4597C109.226 21.6697 109.391 22.0027 109.439 22.4587C108.527 22.5907 107.723 22.7197 107.027 22.8457C106.331 22.9657 105.749 23.1097 105.281 23.2777C104.501 23.5657 103.952 23.9587 103.634 24.4567C103.316 24.9487 103.157 25.5337 103.157 26.2117C103.157 26.7517 103.28 27.2467 103.526 27.6967C103.778 28.1407 104.144 28.4977 104.624 28.7677C105.11 29.0317 105.701 29.1637 106.397 29.1637ZM106.919 27.2377C106.499 27.2377 106.166 27.1447 105.92 26.9587C105.674 26.7667 105.551 26.5057 105.551 26.1757C105.551 25.9297 105.629 25.7197 105.785 25.5457C105.941 25.3657 106.199 25.2037 106.559 25.0597C106.835 24.9577 107.174 24.8647 107.576 24.7807C107.984 24.6907 108.599 24.5767 109.421 24.4387C109.415 24.6727 109.397 24.9307 109.367 25.2127C109.337 25.4887 109.271 25.7317 109.169 25.9417C109.103 26.0797 108.977 26.2507 108.791 26.4547C108.611 26.6587 108.365 26.8417 108.053 27.0037C107.747 27.1597 107.369 27.2377 106.919 27.2377ZM114.191 28.8937H116.657V23.9257C116.657 22.7977 117.101 22.0297 117.989 21.6217C118.277 21.4837 118.598 21.4027 118.952 21.3787C119.312 21.3487 119.627 21.3757 119.897 21.4597V19.1737C119.459 19.1197 119.021 19.1317 118.583 19.2097C118.145 19.2817 117.749 19.4257 117.395 19.6417C117.167 19.7737 116.966 19.9327 116.792 20.1187C116.624 20.3047 116.477 20.5117 116.351 20.7397V19.1737H114.191V28.8937ZM127.441 28.8937V26.8597C126.865 26.9377 126.34 26.9617 125.866 26.9317C125.392 26.9017 125.047 26.7157 124.831 26.3737C124.717 26.1937 124.654 25.9537 124.642 25.6537C124.636 25.3477 124.633 25.0057 124.633 24.6277V21.0637H127.441V19.1737H124.633V16.4737H122.185V19.1737H120.529V21.0637H122.185V24.7717C122.185 25.3537 122.191 25.8757 122.203 26.3377C122.215 26.7937 122.341 27.2437 122.581 27.6877C122.845 28.1617 123.229 28.5067 123.733 28.7227C124.243 28.9327 124.819 29.0437 125.461 29.0557C126.109 29.0737 126.769 29.0197 127.441 28.8937ZM134.503 29.1637C135.163 29.1637 135.802 29.0797 136.42 28.9117C137.044 28.7437 137.602 28.4917 138.094 28.1557C138.586 27.8137 138.976 27.3847 139.264 26.8687C139.558 26.3467 139.705 25.7377 139.705 25.0417C139.705 24.3877 139.582 23.8477 139.336 23.4217C139.096 22.9957 138.787 22.6537 138.409 22.3957C138.037 22.1317 137.647 21.9277 137.239 21.7837C136.831 21.6337 136.459 21.5137 136.123 21.4237L133.873 20.8117C133.597 20.7397 133.327 20.6497 133.063 20.5417C132.799 20.4337 132.58 20.2927 132.406 20.1187C132.232 19.9387 132.145 19.7077 132.145 19.4257C132.145 19.1197 132.25 18.8557 132.46 18.6337C132.676 18.4117 132.952 18.2437 133.288 18.1297C133.63 18.0097 133.993 17.9557 134.377 17.9677C134.965 17.9857 135.505 18.1597 135.997 18.4897C136.489 18.8197 136.807 19.2997 136.951 19.9297L139.597 19.4797C139.285 18.2617 138.679 17.3287 137.779 16.6807C136.879 16.0327 135.757 15.6997 134.413 15.6817C133.525 15.6757 132.715 15.8137 131.983 16.0957C131.251 16.3777 130.666 16.8067 130.228 17.3827C129.79 17.9587 129.571 18.6817 129.571 19.5517C129.571 20.1697 129.673 20.6827 129.877 21.0907C130.087 21.4927 130.348 21.8167 130.66 22.0627C130.972 22.3087 131.293 22.4977 131.623 22.6297C131.959 22.7617 132.253 22.8637 132.505 22.9357L135.871 23.9257C136.375 24.0757 136.711 24.2647 136.879 24.4927C137.047 24.7147 137.131 24.9577 137.131 25.2217C137.131 25.5817 137.008 25.8847 136.762 26.1307C136.522 26.3767 136.213 26.5627 135.835 26.6887C135.457 26.8147 135.067 26.8777 134.665 26.8777C133.945 26.8777 133.303 26.6767 132.739 26.2747C132.175 25.8727 131.803 25.2997 131.623 24.5557L129.067 24.9337C129.199 25.8097 129.511 26.5657 130.003 27.2017C130.501 27.8317 131.134 28.3177 131.902 28.6597C132.676 28.9957 133.543 29.1637 134.503 29.1637ZM141.665 28.8937H144.149V23.9617C144.149 23.3557 144.215 22.8697 144.347 22.5037C144.485 22.1377 144.659 21.8617 144.869 21.6757C145.079 21.4837 145.304 21.3547 145.544 21.2887C145.784 21.2227 146.009 21.1897 146.219 21.1897C146.741 21.1897 147.143 21.3067 147.425 21.5407C147.713 21.7747 147.92 22.0657 148.046 22.4137C148.172 22.7617 148.247 23.1097 148.271 23.4577C148.295 23.7997 148.307 24.0817 148.307 24.3037V28.8937H150.791V23.4397C150.791 23.2777 150.779 23.0197 150.755 22.6657C150.731 22.3117 150.662 21.9217 150.548 21.4957C150.434 21.0637 150.242 20.6497 149.972 20.2537C149.708 19.8577 149.336 19.5307 148.856 19.2727C148.376 19.0147 147.755 18.8857 146.993 18.8857C146.291 18.8857 145.679 19.0027 145.157 19.2367C144.635 19.4707 144.197 19.7827 143.843 20.1727V15.9337H141.665V28.8937ZM157.501 29.1637C158.473 29.1637 159.328 28.9477 160.066 28.5157C160.81 28.0777 161.389 27.4747 161.803 26.7067C162.223 25.9327 162.433 25.0417 162.433 24.0337C162.433 23.0317 162.226 22.1467 161.812 21.3787C161.398 20.6047 160.819 19.9987 160.075 19.5607C159.337 19.1227 158.479 18.9037 157.501 18.9037C156.541 18.9037 155.692 19.1197 154.954 19.5517C154.216 19.9837 153.637 20.5867 153.217 21.3607C152.797 22.1287 152.587 23.0197 152.587 24.0337C152.587 25.0357 152.791 25.9237 153.199 26.6977C153.613 27.4657 154.189 28.0687 154.927 28.5067C155.665 28.9447 156.523 29.1637 157.501 29.1637ZM157.501 26.8777C156.739 26.8777 156.16 26.6227 155.764 26.1127C155.374 25.5967 155.179 24.9037 155.179 24.0337C155.179 23.1877 155.365 22.5037 155.737 21.9817C156.115 21.4537 156.703 21.1897 157.501 21.1897C158.275 21.1897 158.857 21.4477 159.247 21.9637C159.643 22.4797 159.841 23.1697 159.841 24.0337C159.841 24.8677 159.646 25.5517 159.256 26.0857C158.872 26.6137 158.287 26.8777 157.501 26.8777ZM164.394 33.2137H166.86V28.5427C167.178 28.7407 167.529 28.8937 167.913 29.0017C168.303 29.1097 168.726 29.1637 169.182 29.1637C170.076 29.1637 170.859 28.9387 171.531 28.4887C172.203 28.0387 172.725 27.4267 173.097 26.6527C173.475 25.8787 173.664 25.0057 173.664 24.0337C173.664 23.0437 173.472 22.1647 173.088 21.3967C172.71 20.6227 172.176 20.0137 171.486 19.5697C170.796 19.1257 169.986 18.9037 169.056 18.9037C168.552 18.9037 168.09 18.9757 167.67 19.1197C167.256 19.2577 166.884 19.4557 166.554 19.7137V19.1737H164.394V33.2137ZM168.786 26.9857C167.97 26.9857 167.394 26.7157 167.058 26.1757C166.722 25.6297 166.554 24.9157 166.554 24.0337C166.554 23.1517 166.719 22.4407 167.049 21.9007C167.385 21.3547 167.934 21.0817 168.696 21.0817C169.242 21.0817 169.689 21.2167 170.037 21.4867C170.391 21.7507 170.652 22.1077 170.82 22.5577C170.988 23.0017 171.072 23.4937 171.072 24.0337C171.072 24.5797 170.991 25.0777 170.829 25.5277C170.667 25.9717 170.418 26.3257 170.082 26.5897C169.746 26.8537 169.314 26.9857 168.786 26.9857ZM175.626 33.2137H178.092V28.5427C178.41 28.7407 178.761 28.8937 179.145 29.0017C179.535 29.1097 179.958 29.1637 180.414 29.1637C181.308 29.1637 182.091 28.9387 182.763 28.4887C183.435 28.0387 183.957 27.4267 184.329 26.6527C184.707 25.8787 184.896 25.0057 184.896 24.0337C184.896 23.0437 184.704 22.1647 184.32 21.3967C183.942 20.6227 183.408 20.0137 182.718 19.5697C182.028 19.1257 181.218 18.9037 180.288 18.9037C179.784 18.9037 179.322 18.9757 178.902 19.1197C178.488 19.2577 178.116 19.4557 177.786 19.7137V19.1737H175.626V33.2137ZM180.018 26.9857C179.202 26.9857 178.626 26.7157 178.29 26.1757C177.954 25.6297 177.786 24.9157 177.786 24.0337C177.786 23.1517 177.951 22.4407 178.281 21.9007C178.617 21.3547 179.166 21.0817 179.928 21.0817C180.474 21.0817 180.921 21.2167 181.269 21.4867C181.623 21.7507 181.884 22.1077 182.052 22.5577C182.22 23.0017 182.304 23.4937 182.304 24.0337C182.304 24.5797 182.223 25.0777 182.061 25.5277C181.899 25.9717 181.65 26.3257 181.314 26.5897C180.978 26.8537 180.546 26.9857 180.018 26.9857ZM191.395 29.1637C192.331 29.1637 193.192 28.9177 193.978 28.4257C194.77 27.9337 195.349 27.2437 195.715 26.3557L193.267 25.6537C192.895 26.4697 192.223 26.8777 191.251 26.8777C190.585 26.8777 190.06 26.6917 189.676 26.3197C189.298 25.9477 189.064 25.4137 188.974 24.7177H195.796C195.898 23.5417 195.778 22.5187 195.436 21.6487C195.094 20.7787 194.566 20.1037 193.852 19.6237C193.138 19.1437 192.271 18.9037 191.251 18.9037C190.291 18.9037 189.442 19.1227 188.704 19.5607C187.966 19.9927 187.387 20.6017 186.967 21.3877C186.547 22.1737 186.337 23.0977 186.337 24.1597C186.337 25.1317 186.55 25.9957 186.976 26.7517C187.408 27.5017 188.002 28.0927 188.758 28.5247C189.52 28.9507 190.399 29.1637 191.395 29.1637ZM191.359 21.0277C191.947 21.0277 192.397 21.1747 192.709 21.4687C193.027 21.7627 193.231 22.2397 193.321 22.8997H189.037C189.295 21.6517 190.069 21.0277 191.359 21.0277ZM197.828 28.8937H200.294V23.9257C200.294 22.7977 200.738 22.0297 201.626 21.6217C201.914 21.4837 202.235 21.4027 202.589 21.3787C202.949 21.3487 203.264 21.3757 203.534 21.4597V19.1737C203.096 19.1197 202.658 19.1317 202.22 19.2097C201.782 19.2817 201.386 19.4257 201.032 19.6417C200.804 19.7737 200.603 19.9327 200.429 20.1187C200.261 20.3047 200.114 20.5117 199.988 20.7397V19.1737H197.828V28.8937Z" fill="white"/>
</svg>
